# xmcd
#
# Track frame offsets:
#	150
#	13860
#	31869
#	52547
#	85524
#	108587
#	137817
#	159762
#	180990
#
# Disc length: 2949 seconds
# Revision: 0
# Processed by: cddbd v1.5.2PL0 Copyright (c) Steve Scherf et al.
# Submitted via: dBpowerAMP V12.0
#
DISCID=590b8309
DTITLE=Greg Dodd and The Taildraggers - 3am Blues
DYEAR=2014
DGENRE=Blues
TTITLE0=Evil
TTITLE1=Sitting On Top Of The World
TTITLE2=Let Me Love You Baby 
TTITLE3=3am Blues 
TTITLE4=I'm Your Taildragger
TTITLE5=Commit A Crime 
TTITLE6=Can't Lose What You Ain't Never Had
TTITLE7=Doin' Everything 
TTITLE8=Don't You Do Me 
EXTD=
EXTT0=
EXTT1=
EXTT2=
EXTT3=
EXTT4=
EXTT5=
EXTT6=
EXTT7=
EXTT8=
PLAYORDER=
